<?xml version="1.0" encoding="UTF-8"?>
<svg width="700px" height="400px" viewBox="0 0 700 400" version="1.1" xmlns="http://www.w3.org/2000/svg" xmlns:xlink="http://www.w3.org/1999/xlink">
    <!-- Generator: Sketch 53.2 (72643) - https://sketchapp.com -->
    <title>Business Front</title>
    <desc>Created with Sketch.</desc>
    <g id="Business_Front" stroke="none" stroke-width="1" fill="none" fill-rule="evenodd">
        <rect fill="#454647" x="0" y="0" width="700" height="400"></rect>
        <g id="Information" transform="translate(38.000000, 177.000000)">
            <text id="Name" font-family="Ubuntu" font-size="32" font-weight="normal" letter-spacing="0.9142857" fill="#A6A6A6">
                <tspan x="0" y="30">Name</tspan>
            </text>
            <text id="Role" font-family="Ubuntu-Medium, Ubuntu" font-size="20" font-weight="400" letter-spacing="0.9142857" fill="#343535">
                <tspan x="0" y="65">Role</tspan>
            </text>
            <text id="email@cdnjs.com" font-family="Ubuntu" font-size="20" font-weight="normal" letter-spacing="0.9142858" fill="#A6A6A6">
                <tspan x="0" y="160">email@cdnjs.com</tspan>
            </text>
            <text id="+1-(234)-567-8901" font-family="Ubuntu" font-size="20" font-weight="normal" letter-spacing="0.9142858" fill="#A6A6A6">
                <tspan x="0" y="131">+1 (234) 567-8901</tspan>
            </text>
        </g>
        <g id="Background">
            <polyline id="Path-36" stroke="#343535" stroke-width="5" fill-rule="nonzero" points="617.5 273 617.5 353 700 353"></polyline>
            <polyline id="Path-36" stroke="#343535" stroke-width="5" fill-rule="nonzero" points="0 101 451.63607 101 451.63607 214"></polyline>
            <path d="M115,101 L115,0" id="Path-37" stroke="#343535" stroke-width="5" fill-rule="nonzero"></path>
            <g id="dark-brackets" transform="translate(417.000000, 210.218067)">
                <path d="M32,3.78193306 L1.07150597,31.6096549 C-0.250094605,32.7987568 -0.36495383,34.8424256 0.814960712,36.1743169 C0.914855842,36.2870788 1.02247565,36.392641 1.13702798,36.4902264 L32,62.7819331" id="Path" stroke="#343535" stroke-width="10.24" stroke-linecap="round"></path>
                <path d="M235,3.78193306 L204.071506,31.6096549 C202.749905,32.7987568 202.635046,34.8424256 203.814961,36.1743169 C203.914856,36.2870788 204.022476,36.392641 204.137028,36.4902264 L235,62.7819331" id="Path" stroke="#343535" stroke-width="10.24" stroke-linecap="round" transform="translate(219.000000, 33.281933) scale(-1, 1) translate(-219.000000, -33.281933) "></path>
                <g id="cdnjs" transform="translate(42.000000, 0.781933)" fill="#343535" fill-rule="nonzero">
                    <path d="M0,33.5341817 C0,31.0163923 0.38835407,28.6614264 1.16507386,26.4692133 C1.94179365,24.2770002 3.0529178,22.3778341 4.49847963,20.7716582 C5.94404143,19.1654822 7.70242238,17.9066064 9.77367516,16.994993 C11.8449279,16.0833797 14.1750524,15.6275798 16.7641183,15.6275798 C19.9572997,15.6275798 22.9778314,16.2136082 25.8258039,17.3856825 L24.1429194,23.8320592 C23.2367464,23.4413678 22.2119231,23.1157964 21.068419,22.8553355 C19.9249148,22.5948745 18.7059146,22.464646 17.4113816,22.464646 C14.3476535,22.464646 12.0175291,23.4305076 10.4209384,25.3622597 C8.82434776,27.2940119 8.02606437,30.0179586 8.02606437,33.5341817 C8.02606437,36.9201743 8.78119729,39.6007115 10.2914858,41.5758738 C11.8017742,43.5510361 14.3476509,44.5386025 17.9291922,44.5386025 C19.2668763,44.5386025 20.582965,44.4083739 21.877498,44.147913 C23.1720311,43.887452 24.2939428,43.5618807 25.243267,43.1711892 L26.3436145,49.6826808 C25.4805925,50.1167824 24.1752913,50.507468 22.4276718,50.8547493 C20.6800523,51.2020306 18.8785209,51.3756686 17.0230236,51.3756686 C14.1319,51.3756686 11.6183861,50.9307212 9.4824067,50.0408129 C7.3464273,49.1509045 5.57725873,47.9137336 4.174848,46.3292627 C2.77243727,44.7447918 1.7260388,42.8564781 1.03562121,40.664265 C0.345203618,38.4720519 0,36.0953812 0,33.5341817 Z M38.4735455,33.4039519 C38.4735455,36.8767647 39.2934041,39.6007115 40.9331459,41.5758738 C42.5728877,43.5510361 44.8382864,44.5386025 47.7294101,44.5386025 C48.9807919,44.5386025 50.0487656,44.4843406 50.9333632,44.3758152 C51.8179607,44.2672898 52.5407308,44.1479136 53.1016951,44.0176831 L53.1016951,24.4832084 C52.4112775,24.0056966 51.4943304,23.5607491 50.3508263,23.1483526 C49.2073221,22.7359561 47.9883218,22.5297609 46.6937889,22.5297609 C43.8458163,22.5297609 41.763807,23.5064749 40.4476985,25.4599321 C39.1315899,27.4133894 38.4735455,30.0613694 38.4735455,33.4039519 Z M60.9335807,49.4873361 C59.3801407,49.9648479 57.4275829,50.398943 55.075848,50.7896344 C52.7241131,51.1803258 50.2537497,51.3756686 47.6646838,51.3756686 C44.9893156,51.3756686 42.5944655,50.9632783 40.4800616,50.1384852 C38.3656577,49.3136922 36.5641264,48.130783 35.0754134,46.5897223 C33.5867005,45.0486616 32.4432135,43.1820527 31.6449182,40.9898396 C30.8466228,38.7976264 30.4474812,36.3341367 30.4474812,33.5992966 C30.4474812,30.9078666 30.7818971,28.4660817 31.4507392,26.2738686 C32.1195812,24.0816554 33.101254,22.2041941 34.395787,20.6414283 C35.69032,19.0786625 37.2653115,17.8740487 39.1208088,17.0275505 C40.976306,16.1810524 43.1122534,15.7578096 45.528715,15.7578096 C47.1684568,15.7578096 48.6139969,15.9531524 49.8653788,16.3438439 C51.1167607,16.7345353 52.195522,17.1686304 53.1016951,17.6461422 L53.1016951,1.30229832 L60.9335807,2.84217094e-14 L60.9335807,49.4873361 Z M71.4453533,17.5810273 C72.9556418,17.1469257 74.9189871,16.7345353 77.3354489,16.3438439 C79.7519107,15.9531524 82.4272385,15.7578096 85.3615133,15.7578096 C88.1231839,15.7578096 90.4317327,16.1376428 92.2872301,16.8973207 C94.1427275,17.6569985 95.6206306,18.7205315 96.7209834,20.0879516 C97.8213368,21.4553716 98.5980445,23.104933 99.0511311,25.0366852 C99.5042177,26.9684373 99.7307575,29.0846509 99.7307575,31.3853895 L99.7307575,50.5291747 L91.8988722,50.5291747 L91.8988722,32.6225729 C91.8988722,30.7993461 91.7802084,29.2474561 91.5428774,27.9668564 C91.3055463,26.6862566 90.9171925,25.6444284 90.3778035,24.8413404 C89.8384151,24.0382524 89.1048571,23.452224 88.1771084,23.0832377 C87.2493597,22.7142513 86.1166608,22.5297609 84.7789763,22.5297609 C83.7865013,22.5297609 82.7508901,22.5948752 81.6721127,22.7251056 C80.5933353,22.8553361 79.7950522,22.9638599 79.2772387,23.0506802 L79.2772387,50.5291747 L71.4453533,50.5291747 L71.4453533,17.5810273 Z" id="cdn"></path>
                    <path d="M105.517509,62.6405491 C104.956544,62.6405491 104.169048,62.5862872 103.154998,62.4777618 C102.140947,62.3692363 101.245575,62.1630415 100.468855,61.8591701 L101.504477,55.4127934 C102.453801,55.7166646 103.597288,55.8685978 104.934972,55.8685978 C106.747318,55.8685978 108.020256,55.3368313 108.753825,54.2732824 C109.487394,53.2097335 109.854173,51.614434 109.854173,49.4873361 L109.854173,16.4740737 L117.686058,16.4740737 L117.686058,49.6175659 C117.686058,54.0454023 116.63966,57.3228203 114.546831,59.4499182 C112.454003,61.5770161 109.444259,62.6405491 105.517509,62.6405491 Z M118.5275,6.51149159 C118.5275,7.98743704 118.052845,9.15949381 117.103521,10.027697 C116.154197,10.8959003 115.032285,11.3299954 113.737752,11.3299954 C112.400068,11.3299954 111.256581,10.8959003 110.307257,10.027697 C109.357933,9.15949381 108.883278,7.98743704 108.883278,6.51149159 C108.883278,4.99213596 109.357933,3.79837443 110.307257,2.93017121 C111.256581,2.061968 112.400068,1.6278729 113.737752,1.6278729 C115.032285,1.6278729 116.154197,2.061968 117.103521,2.93017121 C118.052845,3.79837443 118.5275,4.99213596 118.5275,6.51149159 Z M136.676979,44.864177 C138.748232,44.864177 140.258498,44.6145723 141.207822,44.1153555 C142.157146,43.6161387 142.631801,42.7588008 142.631801,41.5433163 C142.631801,40.4146521 142.124784,39.4813477 141.110733,38.743375 C140.096682,38.0054022 138.424602,37.2023263 136.094442,36.3341231 C134.670456,35.8132011 133.365155,35.2597299 132.1785,34.6736927 C130.991844,34.0876555 129.967022,33.4039557 129.103999,32.6225729 C128.240977,31.84119 127.561357,30.8970331 127.06512,29.790074 C126.568882,28.6831149 126.320767,27.3265677 126.320767,25.7203918 C126.320767,22.5948602 127.464254,20.1313705 129.751262,18.3298488 C132.038271,16.5283271 135.145104,15.6275798 139.071853,15.6275798 C141.056804,15.6275798 142.955424,15.8120702 144.76777,16.1810566 C146.580116,16.5500429 147.939355,16.9081715 148.845528,17.2554527 L147.421549,23.6367145 C146.558528,23.246023 145.458191,22.8878946 144.120507,22.5623184 C142.782823,22.2367421 141.229406,22.0739565 139.460211,22.0739565 C137.863621,22.0739565 136.569107,22.3452659 135.576632,22.8878929 C134.584157,23.4305199 134.087926,24.266153 134.087926,25.3948172 C134.087926,25.9591493 134.185015,26.4583586 134.379195,26.8924603 C134.573375,27.3265619 134.907791,27.7280999 135.382453,28.0970862 C135.857115,28.4660726 136.482797,28.8350534 137.259516,29.2040398 C138.036236,29.5730261 138.985546,29.9528594 140.107475,30.3435508 C141.962972,31.0381134 143.537963,31.7218132 144.832496,32.3946707 C146.127029,33.0675281 147.195003,33.8271946 148.036449,34.6736927 C148.877896,35.5201909 149.49279,36.4860525 149.88115,37.5713065 C150.26951,38.6565605 150.463687,39.9588458 150.463687,41.4782014 C150.463687,44.7339635 149.266262,47.1974532 146.871376,48.8687444 C144.47649,50.5400356 141.056816,51.3756686 136.612253,51.3756686 C133.634827,51.3756686 131.239977,51.1260639 129.427631,50.6268471 C127.615285,50.1276303 126.342347,49.7260923 125.608778,49.4222212 L126.96803,42.8456147 C128.13311,43.3231265 129.524712,43.7789263 131.142878,44.2130279 C132.761045,44.6471295 134.605727,44.864177 136.676979,44.864177 Z" id="js"></path>
                </g>
            </g>
            <text id="cdnjs.com" font-family="Ubuntu-Medium, Ubuntu" font-size="22" font-weight="400" letter-spacing="1.005714" fill="#343535">
                <tspan x="480" y="304">cdnjs.com</tspan>
            </text>
        </g>
    </g>
</svg>