<?xml version="1.0" encoding="UTF-8"?>
<svg width="700px" height="400px" viewBox="0 0 700 400" version="1.1" xmlns="http://www.w3.org/2000/svg" xmlns:xlink="http://www.w3.org/1999/xlink">
    <!-- Generator: Sketch 53.2 (72643) - https://sketchapp.com -->
    <title>Business Back</title>
    <desc>Created with Sketch.</desc>
    <g id="Business_Back" stroke="none" stroke-width="1" fill="none" fill-rule="evenodd">
        <rect fill="#454647" x="0" y="0" width="700" height="400"></rect>
        <g id="Information" transform="translate(188.000000, 98.000000)">
            <g id="GitHub" transform="translate(68.000000, 0.000000)" fill="#343536">
                <path d="M93.00077,0 C41.6445953,0 0,41.5430731 0,92.7912079 C0,133.788794 26.6475512,168.570899 63.5996026,180.840519 C68.247485,181.699469 69.9538646,178.827595 69.9538646,176.376744 C69.9538646,174.164063 69.8676216,166.854535 69.8275802,159.100935 C43.9546761,164.714075 38.4951853,148.152777 38.4951853,148.152777 C34.2646574,137.427424 28.1691244,134.575525 28.1691244,134.575525 C19.7311695,128.816409 28.8051666,128.934726 28.8051666,128.934726 C38.144053,129.589311 43.0614448,138.496886 43.0614448,138.496886 C51.3561747,152.682625 64.8177851,148.581484 70.1248106,146.210535 C70.9595198,140.21325 73.369704,136.119791 76.0293769,133.802623 C55.3726351,131.45626 33.6578762,123.49983 33.6578762,87.9448234 C33.6578762,77.814128 37.2908632,69.5365524 43.2400911,63.0383405 C42.2744773,60.7011969 39.0911861,51.2635007 44.1410226,38.4821986 C44.1410226,38.4821986 51.9506355,35.9883235 69.7228566,47.9936509 C77.1412958,45.9377021 85.0972138,44.9066545 93.00077,44.8713131 C100.904326,44.9066545 108.866404,45.9377021 116.298704,47.9936509 C134.049365,35.9883235 141.848197,38.4821986 141.848197,38.4821986 C146.910354,51.2635007 143.725523,60.7011969 142.759909,63.0383405 C148.722997,69.5365524 152.331343,77.814128 152.331343,87.9448234 C152.331343,123.584342 130.575003,131.431675 109.865899,133.728867 C113.201656,136.608425 116.17396,142.255369 116.17396,150.912481 C116.17396,163.328076 116.066156,173.320479 116.066156,176.376744 C116.066156,178.846034 117.740195,181.73942 122.454299,180.828226 C159.38633,168.544777 186,133.774965 186,92.7912079 C186,41.5430731 144.361565,0 93.00077,0" id="Fill-5"></path>
                <path d="M34.9462504,133.552151 C34.7861959,134.006892 34.2181829,134.143314 33.7007134,133.831059 C33.1736166,133.532446 32.877576,132.912483 33.0484612,132.456227 C33.2049055,131.987844 33.7741219,131.857486 34.3000153,132.171256 C34.8283155,132.469869 35.1291698,133.095895 34.9462504,133.552151" id="Fill-6"></path>
                <path d="M38.792549,137.76747 C38.4673881,138.20876 37.8317438,138.003816 37.400454,137.306348 C36.9544869,136.610533 36.8709386,135.680024 37.2006156,135.232124 C37.5359377,134.790835 38.1523885,134.997431 38.5994847,135.693247 C39.0454519,136.397326 39.1323873,137.321223 38.792549,137.76747" id="Fill-7"></path>
                <path d="M42.5529626,142.857188 C41.9718543,143.212673 41.0216638,142.87932 40.4342732,142.136537 C39.853165,141.393755 39.853165,140.502969 40.4468377,140.146102 C41.0357988,139.789234 41.9718543,140.110138 42.5670976,140.847388 C43.1466353,141.602619 43.1466353,142.493405 42.5529626,142.857188" id="Fill-8"></path>
                <path d="M47.6660223,147.701983 C47.0803497,148.196804 45.8329202,148.063948 44.9199079,147.388822 C43.9856628,146.728608 43.7255604,145.791837 44.3130024,145.297015 C44.9057527,144.800838 46.1602598,144.940473 47.0803497,145.610176 C48.0075172,146.269034 48.2906218,147.212584 47.6660223,147.701983" id="Fill-9"></path>
                <path d="M54.9587996,151.103385 C54.7299872,151.857694 53.665853,152.200561 52.5938828,151.88002 C51.5234797,151.54991 50.8229378,150.666429 51.0392125,149.904147 C51.261756,149.145054 52.3305918,148.787834 53.4103981,149.130702 C54.4792339,149.459216 55.1813431,150.336319 54.9587996,151.103385" id="Fill-10"></path>
                <path d="M61.9994384,151.467446 C62.0256389,152.296609 61.1317375,152.984248 60.0251491,152.999233 C58.912396,153.025873 58.0123297,152.354884 58,151.539041 C58,150.701553 58.8738657,150.020574 59.9866189,150.000594 C61.0932073,149.977284 61.9994384,150.643278 61.9994384,151.467446" id="Fill-11"></path>
                <path d="M68.9850874,150.126958 C69.1181969,150.920183 68.3458524,151.734627 67.2422821,151.951703 C66.1572852,152.160619 65.1527731,151.670973 65.0150203,150.884276 C64.8803631,150.071465 65.6666376,149.257021 66.7500867,149.046474 C67.8552048,148.844087 68.844239,149.320675 68.9850874,150.126958" id="Fill-12"></path>
            </g>
            <text id="github.com/cdnjs" font-family="Ubuntu-Medium, Ubuntu" font-size="25" font-weight="400" letter-spacing="1.142857" fill="#343535">
                <tspan x="52.082144" y="216">github.com/cdnjs</tspan>
            </text>
        </g>
        <g id="Background" fill-rule="nonzero" stroke="#343535" stroke-width="5">
            <polyline id="Path-36" points="0 353 189 353 189 305 227.599433 305"></polyline>
            <polyline id="Path-36" points="468.426568 305 505.5 305 505.5 101 700 101"></polyline>
            <path d="M586,101 L586,0" id="Path-37"></path>
        </g>
    </g>
</svg>