<?xml version="1.0" encoding="UTF-8"?>
<svg width="1920px" height="969px" viewBox="0 0 1920 969" version="1.1" xmlns="http://www.w3.org/2000/svg" xmlns:xlink="http://www.w3.org/1999/xlink">
    <!-- Generator: Sketch 53.2 (72643) - https://sketchapp.com -->
    <title>background-flipped</title>
    <desc>Created with Sketch.</desc>
    <g id="Page-1" stroke="none" stroke-width="1" fill="none" fill-rule="evenodd">
        <g id="background-flipped">
            <g transform="translate(960.000000, 484.500000) scale(-1, 1) rotate(-180.000000) translate(-960.000000, -484.500000) ">
                <g id="Grid" stroke="#343535" stroke-width="4">
                    <polyline id="Path-2" points="91 163.25 263.421041 163.25 465.894976 163.25"></polyline>
                    <polyline id="Path-3" points="199.151312 163 199.151312 387 4.74364636e-15 388.25"></polyline>
                    <polyline id="Path-4" points="75 388 75 511 259.5 511"></polyline>
                    <polyline id="Path-5" points="191.75 511 191.75 825 3.56659147e-15 827"></polyline>
                    <path d="M123,661.5 L191.5,661.5" id="Path-6"></path>
                    <polyline id="Path-7" points="116 827 116 910 1790 910 1790 969"></polyline>
                    <path d="M1641.25,348 L1639,912" id="Path-9"></path>
                    <polyline id="Path-10" points="1769.5 315 1769.5 119 1920 119"></polyline>
                    <polyline id="Path-12" points="1734 345.5 1734 392 1865 392 1865 511 1920 510.931"></polyline>
                    <polyline id="Path-13" points="1865 405 1865 329.5 1920 329.5"></polyline>
                    <polyline id="Path-14" points="1664.5 288 1664.5 246 1485 246 1485 0"></polyline>
                    <path d="M1640.5,584 L1544,584" id="Path-15"></path>
                    <polyline id="Path-16" stroke-linecap="round" points="1666.5 463 1640.5 438 1612 463"></polyline>
                    <polyline id="Path-16" stroke-linecap="round" transform="translate(1419.500000, 912.250000) scale(-1, 1) rotate(-90.000000) translate(-1419.500000, -912.250000) " points="1446.75 924.75 1420.75 899.75 1392.25 924.75"></polyline>
                    <polyline id="Path-16" stroke-linecap="round" transform="translate(389.500000, 910.250000) scale(-1, 1) rotate(-90.000000) translate(-389.500000, -910.250000) " points="416.75 922.75 390.75 897.75 362.25 922.75"></polyline>
                    <polyline id="Path-16" stroke-linecap="round" transform="translate(192.250000, 757.500000) rotate(180.000000) translate(-192.250000, -757.500000) " points="219.5 770 193.5 745 165 770"></polyline>
                    <polyline id="Path-16" stroke-linecap="round" transform="translate(200.250000, 265.500000) rotate(180.000000) translate(-200.250000, -265.500000) " points="227.5 278 201.5 253 173 278"></polyline>
                    <polyline id="Path-16" stroke-linecap="round" transform="translate(1809.500000, 388.250000) rotate(90.000000) translate(-1809.500000, -388.250000) " points="1836.75 400.75 1810.75 375.75 1782.25 400.75"></polyline>
                    <polyline id="Path-16" stroke-linecap="round" points="1796.5 175 1770.5 150 1742 175"></polyline>
                    <polyline id="Path-16" stroke-linecap="round" points="1512.5 188 1486.5 163 1458 188"></polyline>
                    <path d="M920.5,913 L920.5,868.5" id="Path-17"></path>
                    <path d="M1638.5,736 L1733,736" id="Path-19"></path>
                </g>
                <path d="M1626.64261,316.214777 C1612.20445,316.214777 1600.5,327.919223 1600.5,342.357388 C1600.5,356.795553 1612.20445,368.499998 1626.64261,368.499998 L1757.35739,368.499998 C1771.79555,368.499998 1783.5,356.795553 1783.5,342.357388 C1783.5,327.919223 1771.79555,316.214777 1757.35739,316.214777 L1754.8726,316.214777 L1754.82256,313.76585 C1754.41983,294.056523 1745.15531,281.751874 1726.66629,276.332437 C1708.20006,270.919683 1692.26068,277.486575 1678.40365,296.414727 L1677.07974,298.223139 L1675.13798,297.103908 C1663.43445,290.357979 1653.48951,289.238091 1645.07338,293.513246 C1636.4999,297.868333 1631.28409,304.712453 1629.29425,314.226568 L1628.87843,316.214777 L1626.64261,316.214777 Z" id="Cloud" stroke="#343535" stroke-width="5" fill="#D9643A" fill-rule="nonzero" transform="translate(1692.000000, 321.501290) scale(-1, 1) rotate(-180.000000) translate(-1692.000000, -321.501290) "></path>
                <g id="Icons" transform="translate(56.000000, 155.000000)" fill="#343535" fill-rule="nonzero">
                    <path d="M1528.548,464.908 C1528.548,465.664 1527.9,465.988 1527.144,466.312 C1524.12,467.608 1520.88,468.796 1517.424,468.796 C1512.564,468.796 1510.296,465.772 1504.464,465.772 C1500.252,465.772 1495.824,467.284 1492.26,468.904 C1492.044,469.012 1491.828,469.012 1491.612,469.12 L1491.612,477.328 C1491.612,479.585559 1489.91163,481 1488.048,481 C1485.996,481 1484.376,479.38 1484.376,477.328 L1484.376,437.8 C1482.972,436.72 1482,434.992 1482,433.048 C1482,429.7 1484.7,427 1488.048,427 C1491.396,427 1494.096,429.7 1494.096,433.048 C1494.096,434.992 1493.232,436.72 1491.72,437.8 L1491.72,441.148 C1492.15495,441.003086 1497.91819,438.124 1503.816,438.124 C1510.69995,438.124 1514.11777,441.04 1517.208,441.04 C1521.312,441.04 1525.848,438.124 1526.928,438.124 C1527.792,438.124 1528.548,438.772 1528.548,439.528 L1528.548,464.908 Z" id="FontAwesome" transform="translate(1505.274000, 454.000000) scale(-1, 1) rotate(-180.000000) translate(-1505.274000, -454.000000) "></path>
                    <path d="M217.9715,374.201 L223.3265,361.3175 L228.6815,374.201 L223.3265,374.201 L217.9715,374.201 Z M223.3265,341 L252.653,351.458 L248.18,390.2345 L223.3265,404 L198.473,390.2345 L194,351.458 L223.3265,341 Z M241.628,389.069 L223.3265,347.9615 L205.025,389.069 L211.8605,389.069 L215.546,379.871 L223.3265,379.871 L231.107,379.871 L234.7925,389.069 L241.628,389.069 Z" id="Angular" transform="translate(223.326500, 372.500000) scale(-1, 1) rotate(-180.000000) translate(-223.326500, -372.500000) "></path>
                    <polygon id="Bulma" transform="translate(70.750000, 523.000000) scale(-1, 1) rotate(-180.000000) translate(-70.750000, -523.000000) " points="46 536.5 50.5 505 68.5 487 91.0000001 509.5 77.5 523 95.5 541 68.5 559"></polygon>
                    <path d="M836.941184,672.210525 C831.448912,680.109306 832.128168,690.383543 836.327913,698.798558 C836.42495,699.000394 836.53169,699.198349 836.634549,699.396304 L836.828622,699.774747 C836.867437,699.848495 836.910133,699.920302 836.950888,699.992109 C837.022695,700.12796 837.096443,700.252167 837.170191,700.384137 L837.571922,701.071156 L837.800929,701.447658 L838.266705,702.175433 L838.464659,702.482068 C838.683962,702.808111 838.907146,703.134154 839.138093,703.452435 L839.270063,703.630982 C839.470117,703.905945 839.674567,704.177682 839.883335,704.446089 L840.116222,704.741081 L840.682916,705.439744 L840.900278,705.699803 C841.158396,706.004498 841.424276,706.307252 841.690156,706.602243 C841.717327,706.631354 841.728971,706.641058 841.736734,706.652702 C842.000392,706.938679 842.268242,707.220763 842.540197,707.498861 L842.798315,707.75892 L843.438756,708.387717 L843.700755,708.640012 C843.988976,708.911802 844.282074,709.178373 844.579907,709.439594 L845.54251,710.254701 L845.872435,710.518641 L846.538106,711.038757 L846.89326,711.31046 L847.640442,711.846102 L847.989774,712.092575 C848.228484,712.257537 848.471075,712.414737 848.715608,712.571936 L849.030006,712.781535 C849.404607,713.01935 849.783101,713.250976 850.165335,713.476317 L850.479733,713.67039 L851.333656,714.147811 C851.488914,714.231262 851.648054,714.310832 851.805253,714.390402 L852.414643,714.706741 L852.556317,714.774667 L852.808612,714.894993 L853.775097,715.341361 L853.978874,715.432575 C854.351949,715.595099 854.727863,715.751029 855.106439,715.900292 L855.378142,716.008973 L856.441663,716.402942 L856.577514,716.449519 C856.970196,716.584726 857.364855,716.714122 857.761361,716.837666 L858.048589,716.923058 C858.436736,717.045324 858.855934,717.19476 859.271251,717.268508 C885.84764,722.114517 893.563992,701.296281 893.563992,701.296281 C887.081946,709.742348 875.573403,711.970309 864.64708,709.490053 C864.233704,709.396898 863.831972,709.268809 863.43024,709.148484 L863.127486,709.05727 C862.734606,708.936504 862.343815,708.809044 861.955284,708.674945 L861.794203,708.616723 C861.44833,708.493966 861.104142,708.366512 860.761733,708.234399 L860.470623,708.117955 C860.095498,707.970358 859.723446,707.815066 859.354702,707.652179 L859.131518,707.555143 L858.190263,707.116537 L857.91856,706.986508 C857.674028,706.870064 857.433377,706.740035 857.190786,706.598362 L856.705603,706.346066 C856.410611,706.190808 856.123383,706.023905 855.832273,705.857002 L855.537282,705.69204 C855.155213,705.466424 854.776723,705.234802 854.401953,704.997257 C854.299095,704.931273 854.198176,704.861406 854.095318,704.793481 L853.287973,704.255898 C853.198699,704.197676 853.0939,704.131691 853.027915,704.073469 L852.263266,703.52036 L851.923638,703.264183 L851.234678,702.72466 L850.928042,702.478187 L850.070239,701.754294 C850.039044,701.72701 850.006668,701.701109 849.973202,701.676664 L849.070762,700.855735 L848.818466,700.611202 L848.174143,699.970761 L847.921848,699.718465 C847.650146,699.440941 847.386206,699.161475 847.145555,698.876188 C847.13197,698.862602 847.118385,698.849017 847.10674,698.833491 C846.831954,698.53188 846.562793,698.225192 846.299396,697.913584 L846.105323,697.661289 L845.523103,696.943218 L845.32903,696.677338 L844.657536,695.784601 C838.567518,687.532607 836.390016,676.124982 841.230203,666.770652 M854.000222,665.557694 C850.025602,671.277033 850.241023,678.948748 853.340373,684.980544 C853.859723,685.997154 854.447161,686.977515 855.098676,687.914931 C855.694481,688.768853 856.35433,689.783856 857.144208,690.468935 C857.431437,690.785274 857.730309,691.089969 858.036945,691.394664 L858.269833,691.627552 C858.566456,691.91681 858.869943,692.198944 859.180036,692.473712 C859.193622,692.483415 859.203325,692.497 859.218851,692.506704 C859.572064,692.817221 859.929159,693.088924 860.292076,693.395559 L860.532727,693.58381 C860.896832,693.864623 861.268288,694.135773 861.646707,694.396977 L861.6797,694.420266 C861.846603,694.53671 862.017387,694.64345 862.188172,694.756013 C862.269682,694.808413 862.347312,694.864694 862.428822,694.915153 C862.700128,695.089215 862.975128,695.25745 863.253634,695.419743 L863.370078,695.487669 L864.099793,695.875815 C864.185185,695.924334 864.293866,695.965089 864.359851,696.011667 L864.870264,696.275606 C864.895493,696.289191 864.922664,696.298895 864.947893,696.310539 C865.29796,696.48488 865.652592,696.649901 866.011414,696.805426 L866.244302,696.902463 C866.533373,697.025182 866.824525,697.142937 867.117632,697.255676 L867.490252,697.391527 C867.755993,697.488125 868.023199,697.580644 868.291775,697.669052 L868.654692,697.785496 C869.037016,697.90194 869.430985,698.057199 869.813309,698.121243 C890.332672,701.521406 895.07,685.700556 895.07,685.700556 C890.800389,691.852677 882.532869,694.783183 873.706418,692.493119 C873.316302,692.39047 872.928692,692.278523 872.543919,692.157372 C872.427476,692.122439 872.311032,692.083624 872.194588,692.04481 L871.37948,691.765344 L870.991334,691.629493 C870.698348,691.516448 870.4072,691.398695 870.118004,691.27628 L869.881235,691.179243 C869.520186,691.022295 869.162987,690.856638 868.80995,690.682416 L868.272368,690.410713 L867.96185,690.251573 C867.7335,690.127594 867.507055,690.000138 867.282594,689.869249 L867.119573,689.778034 C866.84192,689.615383 866.567574,689.447152 866.296702,689.273444 C866.213251,689.221044 866.13174,689.162822 866.048288,689.108482 L865.514587,688.755268 C865.138694,688.494752 864.769823,688.224247 864.408369,687.944042 L864.156074,687.749969 C860.27461,684.699138 857.231541,680.530445 855.775992,675.806702 C854.250576,670.906353 854.57856,665.404377 857.221838,660.940692 M868.346115,660.585538 C866.005592,664.049745 865.772704,668.315475 867.399038,672.123192 C869.112705,676.165738 872.62543,679.334953 876.726198,680.856488 L877.23467,681.050561 L877.459795,681.120427 L878.191451,681.3145 C889.521446,683.503647 892.591685,675.500066 893.412615,674.322042 C890.720819,678.197684 886.196972,679.127295 880.646477,677.780427 C880.207872,677.673687 879.72657,677.514547 879.30349,677.36511 C878.760487,677.172654 878.22799,676.951752 877.708208,676.70332 C876.721719,676.228882 875.784903,675.65743 874.911613,674.997417 C869.945279,671.230455 866.859514,664.022575 870.100537,658.169326" id="jQuery" transform="translate(864.035000, 688.084663) scale(-1, 1) rotate(-180.000000) translate(-864.035000, -688.084663) "></path>
                    <path d="M378,0.8913044 L482,0.8913044 L482,35.2701864 L430,35.2701864 L430,41 L406.888889,41 L406.888889,35.2701864 L378,35.2701864 L378,0.8913044 Z M383.777778,29.5403727 L395.333333,29.5403727 L395.333333,12.3509317 L401.111111,12.3509317 L401.111111,29.5403727 L406.888889,29.5403727 L406.888889,6.62111807 L383.777778,6.62111807 L383.777778,29.5403727 Z M412.666667,6.62111807 L412.666667,35.2701864 L424.222222,35.2701864 L424.222222,29.5403727 L435.777778,29.5403727 L435.777778,6.62111807 L412.666667,6.62111807 Z M424.222222,12.3509317 L430,12.3509317 L430,23.810559 L424.222222,23.810559 L424.222222,12.3509317 Z M441.555556,6.62111807 L441.555556,29.5403727 L453.111111,29.5403727 L453.111111,12.3509317 L458.888889,12.3509317 L458.888889,29.5403727 L464.666667,29.5403727 L464.666667,12.3509317 L470.444444,12.3509317 L470.444444,29.5403727 L476.222222,29.5403727 L476.222222,6.62111807 L441.555556,6.62111807 Z" id="NPM" transform="translate(430.000000, 20.945652) scale(-1, 1) rotate(-180.000000) translate(-430.000000, -20.945652) "></path>
                    <path d="M1659,626.037211 L1659,585.962788 C1659,582.117347 1662.0592,579 1665.83385,579 L1705.16615,579 C1708.94038,579 1712,582.116924 1712,585.962788 L1712,596 L1698,602.5 L1694,604.5 C1694.88624,604.911758 1695.21957,605.078424 1695,605 C1694.95154,604.982691 1694.6182,604.816024 1694,604.5 C1695.27915,603.841404 1696.11248,603.341404 1696.5,603 C1697.62739,602.006764 1697.89507,601.024651 1698,600.5 C1698.52906,597.854716 1698.25604,595.853455 1698,595 C1697,591.666667 1693.83333,590 1688.5,590 L1673,590 L1673,622 C1677.26503,622.009196 1680.26503,622.009196 1682,622 C1689.06435,621.962554 1692.27189,622.130349 1696,620 C1697.64525,619.059859 1701,616 1699.5,610 C1698.92876,607.71504 1697.09543,605.881706 1694,604.5 L1698,602.5 C1707.33333,598.149906 1712,595.983239 1712,596 C1712,600.448537 1712,610.460941 1712,626.037211 C1712,629.882653 1708.9408,633 1705.16615,633 L1665.83385,633 C1662.05962,633 1659,629.883076 1659,626.037211 Z M1680,603 L1680,595.5 L1687.06087,595.5 C1690.08696,595.5 1691.6,596.75 1691.6,599.25 C1691.6,601.75 1689.91884,603 1686.55652,603 L1680,603 Z M1680,616.75 L1680,607.75 L1687.66957,607.75 C1691.22319,607.75 1693,609.25 1693,612.25 C1693,615.25 1691.04058,616.75 1687.12174,616.75 L1680,616.75 Z" id="Bootstrap" transform="translate(1685.500000, 606.000000) scale(-1, 1) rotate(-180.000000) translate(-1685.500000, -606.000000) "></path>
                    <path d="M28.1141498,6.21861913 C14.3291065,6.20460837 2.57201487,16.1980108 0.364861572,29.805218 C-1.84229173,43.4124253 6.15314924,56.6097819 19.2358377,60.9538441 C20.6494719,61.2124358 21.1494157,60.3332243 21.1494157,59.5919283 C21.1494157,58.8506323 21.1494157,57.1611671 21.1494157,54.8166032 C13.30547,56.5233078 11.6504837,51.0411656 11.6504837,51.0411656 C11.1301091,49.3420902 10.0245962,47.8823246 8.53014488,46.9209392 C5.99594706,45.1969951 8.73701817,45.1969951 8.73701817,45.1969951 C10.5370129,45.4512434 12.1200257,46.5193002 13.029639,48.0932212 C13.8000319,49.4901254 15.0950552,50.5226803 16.6284443,50.9626401 C18.1618333,51.4025998 19.8073071,51.2137317 21.201134,50.4377852 C21.3093292,49.0195805 21.9207354,47.6867149 22.9250781,46.679587 C16.6844005,45.9727699 10.1334129,43.5592482 10.1334129,32.8880343 C10.0905625,30.1003847 11.1213662,27.4030124 13.0123995,25.3543986 C12.170174,22.9305826 12.2686124,20.2788983 13.2882306,17.9241995 C13.2882306,17.9241995 15.650034,17.1656641 21.0115001,20.8031861 C25.6154387,19.5391229 30.4749454,19.5391229 35.078884,20.8031861 C40.4403501,17.1656641 42.7849141,17.9241995 42.7849141,17.9241995 C43.8187336,20.2539813 43.9417552,22.8866428 43.1297029,25.3026802 C45.0207363,27.3512941 46.0515399,30.0486664 46.0086895,32.8363159 C46.0086895,43.628206 39.4404625,45.9900094 33.1825455,46.6278687 C34.5402786,47.9927058 35.2385106,49.8798194 35.0961234,51.799701 C35.0961234,55.5578991 35.0961234,58.5920407 35.0961234,59.5057311 C35.0961234,60.4194215 35.5960672,61.1262386 37.0269408,60.8504075 C49.9542812,56.3939773 57.7927847,43.2743708 55.5910896,29.7788739 C53.3893944,16.2833769 41.7875649,6.3353237 28.1141498,6.21861913 Z" id="GitHub" transform="translate(27.980000, 33.609302) scale(-1, 1) rotate(-180.000000) translate(-27.980000, -33.609302) "></path>
                </g>
            </g>
        </g>
    </g>
</svg>