<?xml version="1.0" encoding="UTF-8"?>
<svg width="412px" height="165px" viewBox="0 0 412 165" version="1.1" xmlns="http://www.w3.org/2000/svg" xmlns:xlink="http://www.w3.org/1999/xlink">
    <!-- Generator: Sketch 53.2 (72643) - https://sketchapp.com -->
    <title>Shirt Back Light</title>
    <desc>Created with Sketch.</desc>
    <g id="Shirt-Back-Light" stroke="none" stroke-width="1" fill="none" fill-rule="evenodd">
        <g id="cdnjs-logo" transform="translate(5.000000, 0.000000)">
            <path d="M55.5408,6.736 L2.22795079,54.33329 C-0.05015212,56.3671623 -0.24814018,59.8627088 1.78573208,62.1408117 C1.95792585,62.3336828 2.143435,62.5142392 2.34089405,62.681152 L55.5408,107.6512" id="Path" stroke="#EBEBEB" stroke-width="10.24" stroke-linecap="round"></path>
            <path d="M401.004653,6.736 L347.691804,54.33329 C345.413701,56.3671623 345.215713,59.8627088 347.249585,62.1408117 C347.421779,62.3336828 347.607288,62.5142392 347.804747,62.681152 L401.004653,107.6512" id="Path" stroke="#EBEBEB" stroke-width="10.24" stroke-linecap="round" transform="translate(373.424726, 57.193600) scale(-1, 1) translate(-373.424726, -57.193600) "></path>
            <g id="cdnjs" transform="translate(70.742791, 0.612608)" fill="#EBEBEB" fill-rule="nonzero">
                <path d="M0,56.95488 C0,52.6786346 0.663545364,48.6789306 1.990656,44.955648 C3.31776664,41.2323654 5.21624365,38.0067976 7.686144,35.278848 C10.1560443,32.5508984 13.1604303,30.4128077 16.699392,28.864512 C20.2383537,27.3162163 24.2196259,26.54208 28.643328,26.54208 C34.0992273,26.54208 39.2601357,27.537398 44.126208,29.528064 L41.250816,40.476672 C39.7025203,39.8131167 37.9514978,39.2601622 35.997696,38.817792 C34.0438942,38.3754218 31.9610991,38.15424 29.749248,38.15424 C24.5145338,38.15424 20.5332616,39.7946716 17.805312,43.075584 C15.0773624,46.3564964 13.713408,50.9828821 13.713408,56.95488 C13.713408,62.7056928 15.0036351,67.2583512 17.584128,70.612992 C20.1646209,73.9676328 24.5145294,75.644928 30.633984,75.644928 C32.9195634,75.644928 35.1682449,75.4237462 37.380096,74.981376 C39.5919471,74.5390058 41.5088559,73.9860513 43.13088,73.322496 L45.010944,84.381696 C43.5363766,85.1189797 41.3061269,85.7825251 38.320128,86.372352 C35.3341291,86.9621789 32.2560159,87.257088 29.085696,87.257088 C24.1458953,87.257088 19.8512822,86.5013836 16.201728,84.989952 C12.5521738,83.4785204 9.52935598,81.3772935 7.133184,78.686208 C4.73701202,75.9951225 2.9491259,72.7879866 1.769472,69.064704 C0.589818102,65.3414214 0,61.3048537 0,56.95488 Z M65.7362566,56.733696 C65.7362566,62.6319655 67.1370746,67.2583512 69.9387526,70.612992 C72.7404306,73.9676328 76.6111119,75.644928 81.5509126,75.644928 C83.6890352,75.644928 85.513785,75.5527689 87.0252166,75.368448 C88.5366481,75.1841271 89.7715798,74.9813771 90.7300486,74.760192 L90.7300486,41.582592 C89.5503947,40.7715799 87.9836903,40.0158755 86.0298886,39.315456 C84.0760868,38.6150365 81.9932916,38.264832 79.7814406,38.264832 C74.9153682,38.264832 71.3580278,39.9236954 69.1093126,43.241472 C66.8605973,46.5592486 65.7362566,51.0566116 65.7362566,56.733696 Z M104.111681,84.04992 C101.457459,84.8609321 98.1213006,85.5982047 94.1031046,86.26176 C90.0849085,86.9253153 85.8640227,87.257088 81.4403206,87.257088 C76.8691617,87.257088 72.7772986,86.556679 69.1646086,85.15584 C65.5519185,83.755001 62.4738053,81.7459331 59.9301766,79.128576 C57.3865478,76.5112189 55.4327754,73.3409466 54.0688006,69.617664 C52.7048257,65.8943814 52.0228486,61.7103592 52.0228486,57.065472 C52.0228486,52.4943131 52.5942348,48.3471546 53.7370246,44.623872 C54.8798143,40.9005894 56.5571095,37.7118853 58.7689606,35.057664 C60.9808116,32.4034427 63.6718567,30.3575112 66.8421766,28.919808 C70.0124964,27.4821048 73.6619959,26.763264 77.7907846,26.763264 C80.5924626,26.763264 83.0623259,27.0950367 85.2004486,27.758592 C87.3385712,28.4221473 89.1817528,29.1594199 90.7300486,29.970432 L90.7300486,2.21184 L104.111681,2.84217094e-14 L104.111681,84.04992 Z M122.072193,29.85984 C124.652686,29.1225563 128.007276,28.4221473 132.136065,27.758592 C136.264854,27.0950367 140.835944,26.763264 145.849473,26.763264 C150.568089,26.763264 154.512497,27.4083775 157.682817,28.698624 C160.853137,29.9888705 163.378296,31.7951884 165.258369,34.117632 C167.138443,36.4400756 168.465533,39.2417116 169.239681,42.522624 C170.013829,45.8035364 170.400897,49.3977405 170.400897,53.305344 L170.400897,85.819392 L157.019265,85.819392 L157.019265,55.406592 C157.019265,52.3100005 156.816515,49.6742509 156.411009,47.499264 C156.005503,45.3242771 155.341958,43.5548228 154.420353,42.190848 C153.498749,40.8268732 152.245385,39.8315551 150.660225,39.204864 C149.075065,38.5781729 147.139725,38.264832 144.854145,38.264832 C143.158393,38.264832 141.388938,38.3754229 139.545729,38.596608 C137.70252,38.8177931 136.338566,39.0021113 135.453825,39.149568 L135.453825,85.819392 L122.072193,85.819392 L122.072193,29.85984 Z" id="cdn"></path>
                <path d="M180.288194,106.389504 C179.329725,106.389504 177.984202,106.297345 176.251586,106.113024 C174.518969,105.928703 172.989128,105.578499 171.662018,105.0624 L173.43149,94.113792 C175.053514,94.6298906 177.007286,94.887936 179.292866,94.887936 C182.389457,94.887936 184.564411,93.984777 185.817794,92.178432 C187.071176,90.372087 187.697858,87.6626101 187.697858,84.04992 L187.697858,27.979776 L201.07949,27.979776 L201.07949,84.271104 C201.07949,91.7913976 199.291604,97.3578059 195.715778,100.970496 C192.139952,104.583186 186.997475,106.389504 180.288194,106.389504 Z M202.517186,11.0592 C202.517186,13.5659645 201.706186,15.5566006 200.084162,17.031168 C198.462138,18.5057354 196.545229,19.243008 194.333378,19.243008 C192.047798,19.243008 190.094026,18.5057354 188.472002,17.031168 C186.849978,15.5566006 186.038978,13.5659645 186.038978,11.0592 C186.038978,8.4787071 186.849978,6.45120737 188.472002,4.97664 C190.094026,3.50207263 192.047798,2.7648 194.333378,2.7648 C196.545229,2.7648 198.462138,3.50207263 200.084162,4.97664 C201.706186,6.45120737 202.517186,8.4787071 202.517186,11.0592 Z M233.527554,76.197888 C237.066516,76.197888 239.64697,75.7739562 241.268994,74.92608 C242.891018,74.0782038 243.702018,72.6220903 243.702018,70.557696 C243.702018,68.6407584 242.835723,67.0556223 241.103106,65.80224 C239.37049,64.5488577 236.513558,63.1849034 232.532226,61.710336 C230.09919,60.8255956 227.86894,59.885573 225.84141,58.89024 C223.81388,57.894907 222.062858,56.7337026 220.58829,55.406592 C219.113723,54.0794814 217.952518,52.4759134 217.104642,50.59584 C216.256766,48.7157666 215.832834,46.4117896 215.832834,43.68384 C215.832834,38.3753975 217.786607,34.1913753 221.69421,31.131648 C225.601814,28.0719207 230.910177,26.54208 237.619458,26.54208 C241.010963,26.54208 244.254963,26.8554209 247.351554,27.482112 C250.448146,28.1088031 252.770554,28.7170531 254.31885,29.30688 L251.885826,40.144896 C250.411259,39.4813407 248.531214,38.8730908 246.245634,38.320128 C243.960055,37.7671652 241.305873,37.490688 238.28301,37.490688 C235.555061,37.490688 233.343243,37.9514834 231.64749,38.873088 C229.951738,39.7946926 229.103874,41.2139424 229.103874,43.13088 C229.103874,44.0893488 229.269761,44.9372123 229.601538,45.674496 C229.933316,46.4117797 230.504702,47.0937569 231.315714,47.720448 C232.126726,48.3471391 233.195772,48.9738209 234.522882,49.600512 C235.849993,50.2272031 237.471993,50.8723167 239.38893,51.535872 C242.55925,52.7155259 245.250295,53.8767303 247.462146,55.01952 C249.673997,56.1623097 251.498747,57.4525368 252.93645,58.89024 C254.374153,60.3279432 255.424767,61.9683748 256.088322,63.811584 C256.751878,65.6547932 257.08365,67.8666111 257.08365,70.447104 C257.08365,75.9767316 255.037719,80.1607538 250.945794,82.999296 C246.85387,85.8378382 241.010984,87.257088 233.416962,87.257088 C228.329705,87.257088 224.237842,86.8331562 221.14125,85.98528 C218.044659,85.1374038 215.869705,84.4554266 214.616322,83.939328 L216.938754,72.769536 C218.92942,73.5805481 221.307124,74.3546843 224.071938,75.091968 C226.836752,75.8292517 229.988593,76.197888 233.527554,76.197888 Z" id="js"></path>
            </g>
        </g>
        <path d="M114.776,148.343 C114.776,146.912326 114.997998,145.574173 115.442,144.3285 C115.886002,143.082827 116.521163,142.003671 117.3475,141.091 C118.173837,140.178329 119.178994,139.463003 120.363,138.945 C121.547006,138.426997 122.878993,138.168 124.359,138.168 C126.184342,138.168 127.910992,138.500997 129.539,139.167 L128.577,142.83 C128.058997,142.607999 127.47317,142.423001 126.8195,142.275 C126.16583,142.126999 125.469004,142.053 124.729,142.053 C122.977658,142.053 121.645671,142.601828 120.733,143.6995 C119.820329,144.797172 119.364,146.34499 119.364,148.343 C119.364,150.26701 119.795662,151.790161 120.659,152.9125 C121.522338,154.034839 122.977656,154.596 125.025,154.596 C125.78967,154.596 126.541996,154.522001 127.282,154.374 C128.022004,154.225999 128.663331,154.041001 129.206,153.819 L129.835,157.519 C129.341664,157.765668 128.595505,157.987666 127.5965,158.185 C126.597495,158.382334 125.567672,158.481 124.507,158.481 C122.854325,158.481 121.417506,158.228169 120.1965,157.7225 C118.975494,157.216831 117.964171,156.513838 117.1625,155.6135 C116.360829,154.713162 115.762669,153.640173 115.368,152.3945 C114.973331,151.148827 114.776,149.798341 114.776,148.343 Z M138.149428,148.269 C138.149428,150.242343 138.61809,151.790161 139.555428,152.9125 C140.492766,154.034839 141.787753,154.596 143.440428,154.596 C144.155765,154.596 144.766259,154.565167 145.271928,154.5035 C145.777597,154.441833 146.19076,154.374 146.511428,154.3 L146.511428,143.2 C146.116759,142.928665 145.592598,142.675835 144.938928,142.4415 C144.285258,142.207165 143.588432,142.09 142.848428,142.09 C141.22042,142.09 140.030265,142.644994 139.277928,143.755 C138.525591,144.865006 138.149428,146.369657 138.149428,148.269 Z M150.988428,157.408 C150.100424,157.679335 148.984268,157.925999 147.639928,158.148 C146.295588,158.370001 144.883435,158.481 143.403428,158.481 C141.874087,158.481 140.505101,158.246669 139.296428,157.778 C138.087755,157.309331 137.057932,156.637171 136.206928,155.7615 C135.355924,154.885829 134.702264,153.825173 134.245928,152.5795 C133.789592,151.333827 133.561428,149.934008 133.561428,148.38 C133.561428,146.850659 133.752593,145.463173 134.134928,144.2175 C134.517263,142.971827 135.078424,141.905004 135.818428,141.017 C136.558432,140.128996 137.458756,139.444502 138.519428,138.9635 C139.5801,138.482498 140.801088,138.242 142.182428,138.242 C143.119766,138.242 143.946091,138.352999 144.661428,138.575 C145.376765,138.797001 145.993425,139.043665 146.511428,139.315 L146.511428,130.028 L150.988428,129.288 L150.988428,157.408 Z M158.377856,139.278 C159.241194,139.031332 160.363516,138.797001 161.744856,138.575 C163.126196,138.352999 164.655514,138.242 166.332856,138.242 C167.91153,138.242 169.231184,138.457831 170.291856,138.8895 C171.352528,139.321169 172.197353,139.925496 172.826356,140.7025 C173.455359,141.479504 173.899355,142.416828 174.158356,143.5145 C174.417357,144.612172 174.546856,145.81466 174.546856,147.122 L174.546856,158 L170.069856,158 L170.069856,147.825 C170.069856,146.788995 170.002023,145.90717 169.866356,145.1795 C169.730689,144.45183 169.508691,143.859836 169.200356,143.4035 C168.892021,142.947164 168.472692,142.614168 167.942356,142.4045 C167.41202,142.194832 166.764526,142.09 165.999856,142.09 C165.43252,142.09 164.840526,142.127 164.223856,142.201 C163.607186,142.275 163.150857,142.336666 162.854856,142.386 L162.854856,158 L158.377856,158 L158.377856,139.278 Z M179.235284,164.882 C178.914616,164.882 178.464453,164.851167 177.884784,164.7895 C177.305114,164.727833 176.793286,164.610668 176.349284,164.438 L176.941284,160.775 C177.483953,160.947668 178.137613,161.034 178.902284,161.034 C179.938289,161.034 180.665948,160.731836 181.085284,160.1275 C181.504619,159.523164 181.714284,158.616673 181.714284,157.408 L181.714284,138.649 L186.191284,138.649 L186.191284,157.482 C186.191284,159.998013 185.593123,161.860327 184.396784,163.069 C183.200445,164.277673 181.479962,164.882 179.235284,164.882 Z M186.672284,132.988 C186.672284,133.826671 186.400953,134.492664 185.858284,134.986 C185.315614,135.479336 184.674288,135.726 183.934284,135.726 C183.169613,135.726 182.515953,135.479336 181.973284,134.986 C181.430614,134.492664 181.159284,133.826671 181.159284,132.988 C181.159284,132.124662 181.430614,131.446336 181.973284,130.953 C182.515953,130.459664 183.169613,130.213 183.934284,130.213 C184.674288,130.213 185.315614,130.459664 185.858284,130.953 C186.400953,131.446336 186.672284,132.124662 186.672284,132.988 Z M198.427712,154.781 C199.611718,154.781 200.475042,154.639168 201.017712,154.3555 C201.560381,154.071832 201.831712,153.58467 201.831712,152.894 C201.831712,152.252663 201.541881,151.722335 200.962212,151.303 C200.382542,150.883665 199.426718,150.427336 198.094712,149.934 C197.280708,149.637999 196.534549,149.323502 195.856212,148.9905 C195.177875,148.657498 194.592048,148.269002 194.098712,147.825 C193.605376,147.380998 193.21688,146.844503 192.933212,146.2155 C192.649544,145.586497 192.507712,144.815671 192.507712,143.903 C192.507712,142.126991 193.161372,140.727172 194.468712,139.7035 C195.776052,138.679828 197.552034,138.168 199.796712,138.168 C200.931384,138.168 202.016707,138.272832 203.052712,138.4825 C204.088717,138.692168 204.865709,138.895666 205.383712,139.093 L204.569712,142.719 C204.076376,142.496999 203.447382,142.293501 202.682712,142.1085 C201.918041,141.923499 201.03005,141.831 200.018712,141.831 C199.106041,141.831 198.366048,141.985165 197.798712,142.2935 C197.231376,142.601835 196.947712,143.076663 196.947712,143.718 C196.947712,144.038668 197.003211,144.322332 197.114212,144.569 C197.225212,144.815668 197.416377,145.043832 197.687712,145.2535 C197.959046,145.463168 198.31671,145.672832 198.760712,145.8825 C199.204714,146.092168 199.747375,146.307999 200.388712,146.53 C201.449384,146.924669 202.349708,147.313165 203.089712,147.6955 C203.829715,148.077835 204.440209,148.509498 204.921212,148.9905 C205.402214,149.471502 205.753711,150.02033 205.975712,150.637 C206.197713,151.25367 206.308712,151.993662 206.308712,152.857 C206.308712,154.707009 205.624219,156.106829 204.255212,157.0565 C202.886205,158.006171 200.931391,158.481 198.390712,158.481 C196.688703,158.481 195.319717,158.339168 194.283712,158.0555 C193.247707,157.771832 192.520047,157.543668 192.100712,157.371 L192.877712,153.634 C193.543715,153.905335 194.339207,154.164332 195.264212,154.411 C196.189216,154.657668 197.243706,154.781 198.427712,154.781 Z M217.21314,155.558 C217.21314,156.421338 216.923309,157.124331 216.34364,157.667 C215.76397,158.209669 215.067144,158.481 214.25314,158.481 C213.414469,158.481 212.711476,158.209669 212.14414,157.667 C211.576804,157.124331 211.29314,156.421338 211.29314,155.558 C211.29314,154.694662 211.576804,153.985503 212.14414,153.4305 C212.711476,152.875497 213.414469,152.598 214.25314,152.598 C215.067144,152.598 215.76397,152.875497 216.34364,153.4305 C216.923309,153.985503 217.21314,154.694662 217.21314,155.558 Z M222.641568,148.343 C222.641568,146.912326 222.863565,145.574173 223.307568,144.3285 C223.75157,143.082827 224.38673,142.003671 225.213068,141.091 C226.039405,140.178329 227.044562,139.463003 228.228568,138.945 C229.412574,138.426997 230.74456,138.168 232.224568,138.168 C234.04991,138.168 235.77656,138.500997 237.404568,139.167 L236.442568,142.83 C235.924565,142.607999 235.338738,142.423001 234.685068,142.275 C234.031398,142.126999 233.334571,142.053 232.594568,142.053 C230.843226,142.053 229.511239,142.601828 228.598568,143.6995 C227.685896,144.797172 227.229568,146.34499 227.229568,148.343 C227.229568,150.26701 227.66123,151.790161 228.524568,152.9125 C229.387905,154.034839 230.843224,154.596 232.890568,154.596 C233.655238,154.596 234.407564,154.522001 235.147568,154.374 C235.887571,154.225999 236.528898,154.041001 237.071568,153.819 L237.700568,157.519 C237.207232,157.765668 236.461073,157.987666 235.462068,158.185 C234.463063,158.382334 233.43324,158.481 232.372568,158.481 C230.719893,158.481 229.283074,158.228169 228.062068,157.7225 C226.841062,157.216831 225.829738,156.513838 225.028068,155.6135 C224.226397,154.713162 223.628236,153.640173 223.233568,152.3945 C222.838899,151.148827 222.641568,149.798341 222.641568,148.343 Z M259.963996,148.306 C259.963996,149.835341 259.741998,151.228994 259.297996,152.487 C258.853993,153.745006 258.225,154.817996 257.410996,155.706 C256.596992,156.594004 255.616501,157.284664 254.469496,157.778 C253.32249,158.271336 252.058336,158.518 250.676996,158.518 C249.295655,158.518 248.037668,158.271336 246.902996,157.778 C245.768323,157.284664 244.794,156.594004 243.979996,155.706 C243.165992,154.817996 242.530831,153.745006 242.074496,152.487 C241.61816,151.228994 241.389996,149.835341 241.389996,148.306 C241.389996,146.776659 241.61816,145.389173 242.074496,144.1435 C242.530831,142.897827 243.172158,141.831004 243.998496,140.943 C244.824833,140.054996 245.805323,139.370502 246.939996,138.8895 C248.074668,138.408498 249.320322,138.168 250.676996,138.168 C252.033669,138.168 253.28549,138.408498 254.432496,138.8895 C255.579501,139.370502 256.559992,140.054996 257.373996,140.943 C258.188,141.831004 258.82316,142.897827 259.279496,144.1435 C259.735831,145.389173 259.963996,146.776659 259.963996,148.306 Z M255.375996,148.306 C255.375996,146.38199 254.962833,144.858839 254.136496,143.7365 C253.310158,142.614161 252.157003,142.053 250.676996,142.053 C249.196988,142.053 248.043833,142.614161 247.217496,143.7365 C246.391158,144.858839 245.977996,146.38199 245.977996,148.306 C245.977996,150.254676 246.391158,151.796328 247.217496,152.931 C248.043833,154.065672 249.196988,154.633 250.676996,154.633 C252.157003,154.633 253.310158,154.065672 254.136496,152.931 C254.962833,151.796328 255.375996,150.254676 255.375996,148.306 Z M277.306424,147.825 C277.306424,145.802323 277.053593,144.340838 276.547924,143.4405 C276.042254,142.540162 275.098764,142.09 273.717424,142.09 C273.224088,142.09 272.681427,142.127 272.089424,142.201 C271.497421,142.275 271.053425,142.336666 270.757424,142.386 L270.757424,158 L266.280424,158 L266.280424,139.278 C267.143761,139.031332 268.27225,138.797001 269.665924,138.575 C271.059597,138.352999 272.533416,138.242 274.087424,138.242 C275.41943,138.242 276.510919,138.414665 277.361924,138.76 C278.212928,139.105335 278.922087,139.561664 279.489424,140.129 C279.760758,139.931666 280.106088,139.722001 280.525424,139.5 C280.944759,139.277999 281.413421,139.074501 281.931424,138.8895 C282.449426,138.704499 282.998254,138.550334 283.577924,138.427 C284.157593,138.303666 284.743421,138.242 285.335424,138.242 C286.840098,138.242 288.079585,138.457831 289.053924,138.8895 C290.028262,139.321169 290.792921,139.925496 291.347924,140.7025 C291.902926,141.479504 292.285256,142.416828 292.494924,143.5145 C292.704591,144.612172 292.809424,145.81466 292.809424,147.122 L292.809424,158 L288.332424,158 L288.332424,147.825 C288.332424,145.802323 288.085759,144.340838 287.592424,143.4405 C287.099088,142.540162 286.149431,142.09 284.743424,142.09 C284.028087,142.09 283.34976,142.207165 282.708424,142.4415 C282.067087,142.675835 281.586092,142.903999 281.265424,143.126 C281.462758,143.74267 281.598423,144.39633 281.672424,145.087 C281.746424,145.77767 281.783424,146.517663 281.783424,147.307 L281.783424,158 L277.306424,158 L277.306424,147.825 Z" id="cdnjs.com" fill="#EBEBEB" fill-rule="nonzero"></path>
    </g>
</svg>